Coordinates
version=1
nRows=29
nColumns=24
inDegrees=yes

Units are S.I. units (second, meters, Newtons, ...)
Angles are in degrees.

endheader
time	pelvis_tilt	pelvis_list	pelvis_rotation	pelvis_tx	pelvis_ty	pelvis_tz	hip_flexion_r	hip_adduction_r	hip_rotation_r	knee_angle_r	ankle_angle_r	subtalar_angle_r	mtp_angle_r	hip_flexion_l	hip_adduction_l	hip_rotation_l	knee_angle_l	ankle_angle_l	subtalar_angle_l	mtp_angle_l	lumbar_extension	lumbar_bending	lumbar_rotation
      5.05000000	      3.63008579	      9.53856934	      6.29680653	      0.64444854	      0.72375262	     -0.25906181	     19.14343195	     -8.64841951	     -1.82918310	      0.25051049	      7.99091022	    -10.78799308	      0.00000000	    -18.92557584	     13.86712256	      8.16923831	     -2.09367122	     20.59213969	    -13.64056139	      0.00000000	    -25.56307237	     -8.14126313	    -13.12673576
      5.06000000	      3.79192612	      9.53157632	      6.62205098	      0.65596429	      0.72193301	     -0.25984322	     18.62617388	     -8.60229687	     -1.39756532	      1.81923259	      8.18425101	     -9.93486395	      0.00000000	    -19.61104246	     13.71195364	      8.67071060	     -3.06822054	     21.19836170	    -13.76241145	      0.00000000	    -25.77354613	     -7.86563365	    -13.51835825
      5.07000000	      3.98110123	      9.37437202	      6.92321218	      0.66765198	      0.72031749	     -0.26051904	     18.13042220	     -8.37196563	     -1.10589928	      2.84630477	      8.36658840	     -9.25426804	      0.00000000	    -20.27846777	     13.39524847	      9.09200350	     -4.09295788	     21.66224347	    -13.93887473	      0.00000000	    -25.99034198	     -7.43560744	    -13.79838044
      5.08000000	      4.13615249	      9.08150272	      7.21237104	      0.67949565	      0.71888329	     -0.26106809	     17.74336663	     -7.97436989	     -0.80789678	      3.28988018	      8.32256673	     -8.96727644	      0.00000000	    -20.84220284	     12.93893427	      9.40840918	     -5.20370664	     21.99981995	    -14.14285101	      0.00000000	    -26.14135961	     -6.89032735	    -14.01794948
      5.09000000	      4.34100241	      8.70922354	      7.46036543	      0.69158087	      0.71775624	     -0.26148547	     17.18125101	     -7.48060736	      0.14378106	      3.49294330	      7.43995094	    -10.02308922	      0.00000000	    -21.50677221	     12.38542936	      9.80575985	     -6.22280201	     21.94380227	    -14.52850058	      0.00000000	    -26.30595281	     -6.27696772	    -14.15311240
      5.10000000	      4.51106667	      8.24557916	      7.67425890	      0.70381585	      0.71691757	     -0.26173960	     16.65101188	     -6.88233878	      1.48925299	      3.32660752	      5.82079021	    -12.08381867	      0.00000000	    -22.02168778	     11.74583233	      9.92411925	     -7.40521143	     21.80217318	    -14.64356999	      0.00000000	    -26.41327111	     -5.61273778	    -14.20037354
      5.11000000	      4.64910179	      7.72500375	      7.80951866	      0.71616683	      0.71644193	     -0.26181255	     16.17822491	     -6.20752662	      3.17942600	      2.81836374	      3.38860219	    -14.91337313	      0.00000000	    -22.41536521	     11.07714261	      9.86233197	     -8.69578203	     21.43034425	    -14.76084166	      0.00000000	    -26.47473250	     -4.94088800	    -14.21773494
      5.12000000	      4.82544115	      7.10993798	      7.87598018	      0.72861025	      0.71647997	     -0.26173690	     15.72074658	     -5.40020140	      4.82678896	      1.99069828	      0.64958055	    -17.89077888	      0.00000000	    -22.69927878	     10.34316504	      9.66834892	    -10.20230124	     20.81677420	    -14.83822962	      0.00000000	    -26.57626964	     -4.20199015	    -14.06926616
      5.13000000	      4.81041653	      6.47355607	      7.77930000	      0.74106840	      0.71679450	     -0.26144132	     15.65473039	     -4.52590888	      6.46756460	      0.70502306	     -2.13483726	    -20.73515830	      0.00000000	    -22.57855976	      9.69843473	      9.14935186	    -11.98416658	     19.85843535	    -14.95356491	      0.00000000	    -26.46147640	     -3.54920653	    -13.80949155
      5.14000000	      4.91412469	      5.76475711	      7.54951358	      0.75353675	      0.71773548	     -0.26101887	     15.59434828	     -3.50343325	      7.58499567	     -0.89601388	     -4.32905733	    -22.73036978	      0.00000000	    -22.35277889	      9.02782971	      8.36167929	    -14.08235315	     18.60200888	    -15.07585853	      0.00000000	    -26.49783524	     -2.83853606	    -13.40204539
      5.15000000	      4.95852308	      5.04780116	      7.20064613	      0.76596881	      0.71905556	     -0.26050962	     15.78735846	     -2.42716751	      8.01886879	     -2.87366994	     -5.38358303	    -23.47390815	      0.00000000	    -21.79319062	      8.41599105	      7.31228787	    -16.56056944	     16.94104001	    -15.28490900	      0.00000000	    -26.48376014	     -2.16632506	    -12.94060470
      5.16000000	      5.06583093	      4.33321837	      6.72199745	      0.77838003	      0.72077306	     -0.25990978	     15.92735257	     -1.32638185	      8.23134683	     -4.91431432	     -5.78625004	    -23.76304568	      0.00000000	    -21.04066603	      7.82859750	      5.97862305	    -19.37600981	     14.90157842	    -15.57962367	      0.00000000	    -26.55406778	     -1.52942243	    -12.39884558
      5.17000000	      5.17074953	      3.65853823	      6.16660500	      0.79076153	      0.72273202	     -0.25924353	     15.95477181	     -0.27148865	      8.39679065	     -6.78841694	     -5.70799987	    -23.90812030	      0.00000000	    -20.01292748	      7.25678126	      4.39437950	    -22.53311674	     12.41722684	    -15.88746709	      0.00000000	    -26.62353789	     -0.97378115	    -11.80517308
      5.18000000	      5.10559990	      3.09110940	      5.63669428	      0.80307546	      0.72468556	     -0.25857224	     16.05316986	      0.63111789	      8.37496623	     -8.50617148	     -4.95778947	    -23.68639903	      0.00000000	    -18.54987055	      6.73045034	      2.76629577	    -25.98560575	      9.41866126	    -16.25526251	      0.00000000	    -26.48324241	     -0.56761563	    -11.34582451
      5.19000000	      5.21344143	      2.54331767	      5.11960220	      0.81535369	      0.72695549	     -0.25788733	     15.74648367	      1.48280591	      8.03252817	     -9.83819499	     -3.56920809	    -22.74763614	      0.00000000	    -17.11870524	      6.11256348	      1.16353669	    -29.50921439	      5.77405946	    -16.98339985	      0.00000000	    -26.52928049	     -0.17665955	    -10.88364209
      5.20000000	      5.25727607	      2.05219654	      4.70789011	      0.82755813	      0.72921795	     -0.25718116	     15.16472655	      2.24712594	      8.07221561	    -10.60874500	     -2.44917407	    -22.45630418	      0.00000000	    -15.40341854	      5.39334648	     -0.42677058	    -33.21001713	      1.79350906	    -17.58449934	      0.00000000	    -26.46612282	      0.14248583	    -10.52099421
      5.21000000	      5.26314161	      1.62446925	      4.43368461	      0.83963664	      0.73148156	     -0.25651513	     14.35395530	      2.90582134	      8.20795770	    -10.92497587	     -1.41572165	    -22.30497571	      0.00000000	    -13.48435489	      4.59736320	     -1.83288354	    -36.97286928	     -2.50198244	    -18.26492073	      0.00000000	    -26.33439804	      0.40486594	    -10.28411942
      5.22000000	      5.30484907	      1.28341990	      4.27546695	      0.85157738	      0.73378280	     -0.25590481	     13.29963670	      3.43571858	      8.28449268	    -10.88065038	     -0.28870453	    -22.10889118	      0.00000000	    -11.49361238	      3.77652864	     -3.03140297	    -40.69067983	     -6.98122556	    -19.20900464	      0.00000000	    -26.22847599	      0.58329728	    -10.10775014
      5.23000000	      5.26003298	      1.00969604	      4.25432778	      0.86330271	      0.73594148	     -0.25540682	     12.19922917	      3.84964710	      8.34095473	    -10.58328428	      0.71375063	    -21.97637731	      0.00000000	     -9.27703404	      2.94970920	     -3.98343667	    -44.39368731	    -11.24064387	    -20.21028334	      0.00000000	    -26.01949535	      0.71305932	    -10.02825482
      5.24000000	      5.16944741	      0.80689201	      4.33501546	      0.87479928	      0.73797106	     -0.25501383	     11.07697181	      4.15466869	      8.34521354	    -10.14792040	      1.64252669	    -21.85109346	      0.00000000	     -6.92787067	      2.15727781	     -4.72233190	    -47.98178275	    -14.98833079	    -21.34938963	      0.00000000	    -25.76246262	      0.77484563	    -10.00303148
      5.25000000	      5.09491967	      0.67395383	      4.41985953	      0.88608027	      0.73993246	     -0.25470055	      9.91311177	      4.36262793	      8.23730695	     -9.64405916	      2.64181043	    -21.45358486	      0.00000000	     -4.58716126	      1.45669943	     -5.32272237	    -51.32501274	    -17.98368894	    -22.70496643	      0.00000000	    -25.55390041	      0.76413462	     -9.95219983
      5.26000000	      4.91797241	      0.59163153	      4.52582006	      0.89713575	      0.74164955	     -0.25448251	      8.86790365	      4.49349935	      8.12821503	     -9.13335688	      3.56402041	    -21.17778003	      0.00000000	     -2.12669152	      0.85997993	     -5.77155496	    -54.42021713	    -19.78405773	    -23.97725836	      0.00000000	    -25.24855742	      0.69655376	     -9.90041548
      5.27000000	      4.72202650	      0.53656705	      4.56263916	      0.90801448	      0.74323123	     -0.25430611	      7.83965806	      4.58024840	      8.01190290	     -8.58220158	      4.34554556	    -20.88177662	      0.00000000	      0.30444179	      0.37678439	     -6.13639494	    -57.15933824	    -20.31618422	    -25.06357099	      0.00000000	    -24.95058936	      0.57972091	     -9.73309619
      5.28000000	      4.59933610	      0.55245254	      4.51931269	      0.91876205	      0.74479027	     -0.25419164	      6.84172529	      4.57893358	      7.56771885	     -8.20185310	      5.66443595	    -19.78885397	      0.00000000	      2.55434867	      0.04962404	     -6.46149199	    -59.43575417	    -19.64728580	    -25.92711975	      0.00000000	    -24.77010523	      0.38415481	     -9.46803746
      5.29000000	      4.45388208	      0.58959389	      4.38436034	      0.92939005	      0.74618186	     -0.25408845	      5.80235999	      4.56249909	      7.63596745	     -7.70380832	      6.37503011	    -19.53400227	      0.00000000	      4.74872819	     -0.16469970	     -6.74680954	    -61.28040954	    -17.96158308	    -26.46395453	      0.00000000	    -24.58813444	      0.14775120	     -9.07629865
      5.30000000	      4.38284154	      0.69933822	      4.15407136	      0.93994460	      0.74753082	     -0.25397329	      4.73790817	      4.46798630	      7.65221083	     -7.29007500	      7.26377951	    -19.02846307	      0.00000000	      6.75970824	     -0.26889708	     -7.07822794	    -62.65611986	    -15.31697073	    -26.26265178	      0.00000000	    -24.52127655	     -0.18601242	     -8.66166706
      5.31000000	      4.34984822	      0.85279817	      3.86256916	      0.95042786	      0.74878639	     -0.25388935	      3.66813811	      4.32184319	      7.69069239	     -6.92737843	      8.21006124	    -18.43321511	      0.00000000	      8.63545064	     -0.26670703	     -7.37543407	    -63.57462251	    -12.34963041	    -25.67807556	      0.00000000	    -24.52097943	     -0.56882401	     -8.15972980
      5.32000000	      4.32547746	      1.06284378	      3.51553305	      0.96083929	      0.74991386	     -0.25381785	      2.61693865	      4.11036169	      7.82419474	     -6.60450204	      9.13034422	    -17.85471844	      0.00000000	     10.40413619	     -0.16459331	     -7.66514043	    -64.04892981	     -9.37990650	    -24.75403636	      0.00000000	    -24.55012613	     -1.02295368	     -7.58490191
      5.33000000	      4.32255062	      1.28146359	      3.17213817	      0.97120228	      0.75089200	     -0.25378431	      1.58059848	      3.88419324	      7.91289776	     -6.33267691	     10.07906851	    -17.30015577	      0.00000000	     12.05803791	     -0.05840117	     -7.95329963	    -64.11658412	     -6.57674735	    -23.64572418	      0.00000000	    -24.61149030	     -1.47324117	     -7.07283491
